<?xml version="1.0" encoding="utf-8" ?><svg xmlns="http://www.w3.org/2000/svg" xmlns:xlink="http://www.w3.org/1999/xlink" width="1024" height="1024" viewBox="270 305 490 410"><path fill="#302623" d="M409.244 320.71C446.279 317.883 492.795 339.253 513.618 370.368C520.176 361.217 528.047 353.082 536.978 346.227C592.093 304.605 670.008 314.914 711.385 369.588C745.976 415.296 743.769 479.973 715.791 528.058C690.956 570.74 646.601 615.211 607.204 644.294C602.604 647.975 596.33 652.189 591.448 655.643C574.033 668.148 555.907 679.632 537.16 690.034C529.823 694.191 519.658 700.156 512.162 703.412C471.761 683.02 425.527 653.381 391.576 623.458C344.85 581.441 291.882 527.135 287.489 460.955C282.567 386.791 334.368 325.026 409.244 320.71Z"/><path fill="#D9D2C4" d="M311.532 515.751C311.265 514.296 305.923 502.246 304.794 499.04C296.516 475.537 293.882 451.207 298.451 426.495C304.168 395.387 322.024 367.83 348.081 349.901C372.416 333.213 407.026 325.872 434.904 331.796C464.653 338.118 494.966 353.749 509.32 381.066C510.299 382.93 511.794 384.152 513.898 384.498C514.596 384.295 516.022 383.878 516.389 383.207C542.846 335.006 610.945 317.363 659.689 339.26C720.68 366.66 742.049 436.211 720.064 496.715C713.147 515.751 706.64 528.208 694.292 544.214C689.945 523.526 686.167 514.272 673.025 497.521C676.08 495.257 683.684 490.952 679.641 487.203C677.354 485.082 675.453 487.112 673.538 488.616C659.188 499.888 643.744 505.608 625.387 504.896C619.052 504.77 619.303 503.172 616.95 499.84C615.675 498.034 606.391 499.344 603.841 499.681C595.832 495.81 583.599 489.082 578.531 481.547C589.119 475.541 592.272 478.657 600.863 476.157C602.322 474.323 602.095 472.218 600.261 470.768C592.552 469.246 580.879 473.838 574.081 477.753C571.062 473.529 565.416 467.428 563.62 462.771C560.293 454.165 559.928 438.661 563.393 430.029C567.136 420.701 567.856 418.268 568.111 407.736C568.287 400.49 571.243 389.943 573.921 382.975C580.292 388.292 584.793 393.394 589.476 400.268C590.814 402.232 593.042 411.509 594.691 411.022C602.418 408.741 608.907 404.935 617.051 403.592C625.599 402.183 634.182 403.02 642.516 405.249C647.728 406.583 652.901 412.817 655.617 405.206C658.774 396.357 667.421 387.864 674.545 381.999C678.933 392.9 680.89 407.109 680.259 418.842C683.592 424.827 685.316 429.731 686.555 436.498C687.198 440.009 686.9 446.476 688.307 449.143C689.638 450.361 689.511 450.339 691.293 450.538C692.201 450.236 693.795 449.814 694.022 448.733C695.373 442.089 693.834 432.135 691.157 425.844C687.997 418.419 688.129 415.775 687.429 408.035C686.941 402.397 686.076 396.797 684.84 391.275C684.177 388.337 681.54 375.093 677.779 373.352C674.8 371.973 671.327 375.382 668.756 377.508C661.215 383.744 654.535 391.247 649.931 400.024C631.489 393.981 617.231 394.311 599.079 401.869C594.375 394.076 581.9 375.787 572.554 374.443C565.874 373.482 561.296 401.781 560.786 406.548C560.596 408.32 560.265 418.206 559.977 418.797C554.604 429.829 553.815 436.69 554.09 449.063C552.085 446.903 550.058 444.764 548.008 442.647C533.956 428.186 518.418 420.798 497.906 420.644C478.014 420.457 458.876 428.243 444.763 442.263C428.82 458.026 410.648 489.474 410.573 512.325C393.255 517.761 371.76 528.799 356.682 538.769C339.029 524.283 336.19 498.788 354.046 483.168C356.455 481.06 360.214 479.399 363.063 477.08C372.261 469.591 366.057 455.605 355.073 454.928C347.76 454.733 338.297 461.029 332.74 466.028C317.513 479.726 313.838 495.496 312.919 515.073C313.416 518.215 313.018 517.742 311.532 515.751Z"/><path fill="white" d="M311.532 515.751C311.833 515.594 312.571 515.183 312.919 515.073C313.416 518.215 313.018 517.742 311.532 515.751Z"/><path fill="#302623" d="M394.373 386.053C394.998 388.319 394.566 388.223 396.045 389.346C398.129 389.249 399.18 388.735 400.192 391.02L400.757 390.752C400.592 380.72 402.895 367.562 410.131 360.043C421.957 347.754 439.463 361.859 438.859 376.122C438.646 382.13 435.606 387.116 432.108 391.766C434.056 392.796 437.245 394.356 438.743 395.817C455.299 411.967 441.078 435.457 419.675 421.001C418.343 420.082 417.04 419.122 415.769 418.121C415.172 420.693 415.601 420.364 413.972 421.777C412.221 422.064 412.286 422.064 410.528 421.824C410.474 431.544 415.517 447.37 398.354 446.972C393.302 446.855 389.02 443.404 385.697 439.939C382.656 436.519 381.439 431.145 380.669 426.754C372.751 429.109 367.181 428.773 359.712 424.96C344.088 416.981 338.466 394.67 359.527 389.491C369.766 386.973 382.89 390.927 391.633 396.275C392.017 394.293 392.289 392.628 392.942 390.696C393.482 389.686 393.205 389.598 392.698 388.539L393.234 387.146C393.681 386.665 393.852 386.433 394.373 386.053Z"/><path fill="#3E6E45" d="M362.969 395.571C371.558 395.15 379.145 396.157 387.165 399.459C389.748 400.523 392.195 401.992 394.751 403.008L396.111 403.545C392.193 409.516 388.665 413.729 382.992 418.1C366.532 430.554 337.223 401.631 362.969 395.571Z"/><path fill="#3E6E45" d="M420.329 362.54C424.848 362.578 428.581 365.389 430.265 369.407C436.783 384.964 424.1 391.733 413.844 397.032C412.665 397.76 408.448 400.105 407.227 400.049C405.286 399.642 405.433 397.53 405.554 396.254C406.319 388.196 405.826 380.25 409.553 372.775C412.116 367.635 414.73 364.252 420.329 362.54Z"/><path fill="#3E6E45" d="M423.572 398.2C433.569 396.704 439.974 402.83 438.909 413.496C438.386 418.726 431.364 418.898 427.136 417.547L426.29 417.287C418.12 412.936 415.307 408.508 408.893 401.969C416.151 399.835 415.754 399.127 423.572 398.2Z"/><path fill="#3E6E45" d="M399.305 408.775C403.849 412.394 407.309 429.258 405.633 435.012C403.803 441.298 400.196 440.415 395.303 438.684C378.872 427.192 391.436 419.355 399.305 408.775Z"/><path fill="#302623" d="M677.281 456.702C684.301 455.867 706.789 456.033 711.769 460.28C712.219 462.332 712.247 461.315 711.491 463.43C709.184 465.247 704.995 463.913 702.054 463.367C696.285 462.296 691.314 461.93 685.459 461.93C678.795 461.935 672.148 462.587 665.611 463.876C661.89 464.626 658.049 465.567 654.316 466.199C652.694 466.473 652.962 466.339 651.906 465.484C651.032 463.332 650.94 464.268 651.59 462.545C655.789 458.806 671.108 457.33 677.281 456.702Z"/><path fill="#302623" d="M626.303 457.727C641.03 457.488 635.69 461.072 630.162 468.564C632.905 473.69 635.189 476.404 642.005 474.04C643.509 473.519 644.929 470.263 646.727 471.498C650.448 474.054 645.412 477.729 642.794 478.184C637.442 479.296 634.564 479.284 629.832 476.596C628.321 475.124 627.654 473.466 626.189 475.397C622.811 479.85 611.246 480.557 609.124 474.704C608.927 474.149 608.986 473.536 609.285 473.029C611.376 469.541 614.251 475.79 617.423 474.779C620.11 473.923 621.212 474.547 623.208 471.871C627.061 466.704 619.907 466.319 619.023 461.998C618.473 457.891 624 457.853 626.303 457.727Z"/><path fill="#302623" d="M655.062 469.61C672.253 468.906 685.161 470.413 699.126 481.221C702.218 483.614 705.708 486.405 706.224 490.473C705.847 492.3 705.317 492.603 704.012 493.927C701.987 492.791 700.369 490.926 698.742 489.244C691.004 481.233 681.041 476.388 669.946 475.269C665.045 474.774 659.243 476.057 654.459 474.781C653.293 474.47 653.286 473.952 652.869 472.988C653.232 471.117 653.68 470.91 655.062 469.61Z"/><path fill="#302623" d="M584.756 458.223C590.315 458.3 593.803 458.676 599.615 459.737C603.269 459.457 609.69 464.821 603.749 466.498C604.93 466.164 589.027 464.114 588.621 464.066C583.273 463.776 577.908 464.078 572.626 464.965C571.77 465.104 568.477 465.818 568.052 465.39C563.725 461.035 568.947 459.969 571.501 459.539C576.762 458.652 580.136 458.499 584.756 458.223Z"/><path fill="#302623" d="M585.567 435.705C589.584 438.376 589.959 443.638 598.034 445.171C603.2 446.428 608.685 444.053 611.894 439.946C612.798 438.789 614.422 435.008 616.528 435.997C619.234 437.268 618.193 439 617.161 441.06C613.791 445.9 608.417 450.301 602.251 450.515C596.72 450.731 591.345 448.658 587.391 444.785C585.031 442.478 581.918 439.102 584.887 436.36L585.567 435.705Z"/><path fill="#302623" d="M666.938 435.238C668.057 435.343 670.854 435.318 670.497 437.255C668.698 447.01 658.525 451.223 649.496 449.622C644.209 448.684 641.787 446.908 638.338 442.968C637.312 441.463 633.773 436.804 637.567 436.238C639.525 435.946 642.707 441.489 645.953 443.256C649.553 445.26 653.814 445.711 657.754 444.506C663.089 442.83 664.407 440.013 666.711 435.66L666.938 435.238Z"/><defs><linearGradient id="gradient_0" gradientUnits="userSpaceOnUse" x1="379.56558" y1="379.9816" x2="377.25314" y2="384.84769"><stop offset="0" stop-color="#15110D"/><stop offset="1" stop-color="#39322A"/></linearGradient></defs><path fill="url(#gradient_0)" d="M370.822 377.84C369.588 379.196 368.119 381.831 365.934 380.786C363.22 380.129 364.213 374.039 366.297 374.259C369.509 374.598 379.831 380.06 382.711 381.606C386.78 383.79 389.249 386.668 392.698 388.539C393.205 389.598 393.482 389.686 392.942 390.696C383.66 384.37 382.922 382.05 370.822 377.84Z"/><path fill="#302623" d="M393.234 387.146C392.805 385.104 392.414 383.054 392.064 380.998C391.454 377.308 391.004 371.834 392.103 368.254C393.014 365.286 392.172 357.265 397.499 359.439C398.061 359.666 398.5 360.119 398.71 360.687C400.51 365.504 394.513 366.231 394.123 367.036C391.538 372.379 393.396 380.355 394.373 386.053C393.852 386.433 393.681 386.665 393.234 387.146Z"/><path fill="#D9D2C4" d="M491.345 428.197C500.928 427.333 509.475 428.417 518.575 431.452C546.027 440.607 554.823 468.453 573.656 487.417C580.066 493.871 586.742 498.096 594.371 502.929C583.248 506.141 585.905 516.066 593.574 521.549C597.906 524.646 600.851 526.098 605.776 528.215C589.007 559.673 559.731 559.429 529.164 549.446C524.769 548.01 514.722 542.355 510.741 542.733C505.777 545.077 508.856 549.071 512.254 550.602C516.523 552.525 521.059 554.08 525.383 555.856C521.017 567.175 519.775 579.469 515.012 590.794C512.18 597.527 507.871 603.817 500.771 606.529C494.943 608.755 488.727 607.714 482.849 606.313C450.712 598.65 455.362 576.779 445.319 572.204C436.952 572.547 447.752 589.269 449.78 592.569C472.878 630.171 520.483 603.074 550.968 628.775C560.715 636.991 563.703 643.058 565.182 655.641C560.917 656.778 558.754 657.176 554.352 657.748C553.614 653.468 548.082 634.293 541.642 642.328C542.15 644.226 545.349 645.924 546.56 648.076C548.439 651.414 548.902 654.65 549.625 658.341C542.372 658.092 538.291 657.714 531.242 656.116C524.521 649.48 521.071 648.609 512.48 645.313C488.129 637.813 466.235 651.273 441.234 648.322C431.716 647.198 427.144 640.788 419.871 635.424C391.691 614.642 366.354 589.091 343.748 562.827C361.738 540.148 386.162 529.334 412.627 519.331C414.977 523.383 417.219 526.684 419.908 530.555C430.172 545.336 455.875 548.561 469.706 537.3C479.815 529.07 485.574 509.429 486.425 496.764C486.949 488.957 489.222 462.541 484.872 457.164C482.576 456.137 479.575 457.236 479.607 460.078C479.877 483.691 483.91 530.259 453.328 536.538C438.05 539.675 418.807 525.728 418.294 510.18C417.754 493.848 432.729 468.1 442.624 455.66C455.276 439.981 471.661 430.368 491.345 428.197Z"/><path fill="#302623" d="M546.886 476.235C548.034 476.271 550.44 475.955 550.689 477.697C551.113 480.672 549.474 484.461 547.858 486.896C544.337 492.217 538.783 495.856 532.498 496.96C525.23 498.19 518.68 496.205 512.793 491.953C511.756 490.964 508.499 487.45 511.063 485.527C513.202 484.636 514.541 486.624 515.871 487.638C526.378 495.65 541.755 492.585 545.885 479.493L546.886 476.235Z"/><path fill="#D9D2C4" d="M666.195 501.96C667.062 502.017 667.187 502.051 667.831 502.773C680.341 516.784 686.729 534.934 687.605 553.361C685.006 556.821 677.799 566.004 675.44 568.84C671.033 574.137 644.71 602.903 640.179 605.048C638.897 604.917 638.368 604.713 637.175 604.216C632.566 605.601 632.641 619.207 625.16 616.981C623.639 615.319 623.235 611.672 623.15 609.436C622.456 594.302 627.71 580.486 637.405 568.967C640.11 565.753 647.735 560.314 647.334 556.074C645.045 552.809 642.412 553.742 639.596 555.975C624.272 568.129 606.368 605.373 621.044 623.004L602.774 636.52C604.785 620.012 599.657 611.128 591.75 596.57C587.618 589.125 581.522 578.491 576.225 571.444C575.782 570.855 574.475 570.482 573.743 570.259C571.754 570.605 572.583 570.189 571.117 571.455C569.266 575.951 576.731 584.589 578.982 588.964C585.793 602.202 600.739 620.871 594.97 636.278C592.692 642.362 585.986 645.843 580.288 647.901C581.601 640.113 581.996 634.305 578.968 626.842C571.759 609.075 560.825 605.127 545.281 598.223C540.131 585.369 539.695 573.733 541.496 560.259C558.826 562.948 576.571 564.479 591.933 554.515C607.495 544.421 615.644 529.486 619.622 511.863C637.461 513.086 650.717 510.835 666.195 501.96Z"/><path fill="#D9D2C4" d="M448.221 655.963C455.249 655.597 462.898 655.135 469.821 653.921C492.343 649.97 509.757 645.809 527.971 663.13C538.237 665.222 549.248 666.348 559.66 664.751L559.492 666.599C544.689 676.434 527.766 685.292 512.095 693.667C509.017 692.084 505.907 690.272 502.888 688.561C484.432 678.103 465.742 667.949 448.221 655.963Z"/><path fill="#D9D2C4" d="M353.485 462.488C355.947 462.558 359.597 463.298 359.964 466.123C360.731 472.03 352.343 475.398 348.894 478.128C346.527 480.037 344.399 482.224 342.556 484.643C336.1 493.224 333.339 504.029 334.887 514.655C336.548 526.297 341.818 536.289 351.256 543.367C347.611 546.995 345.215 549.511 341.887 553.447C341.133 554.668 340.766 555.497 339.585 556.322C334.075 554.115 325.273 535.509 323.313 529.799C314.431 503.916 326.676 471.653 353.485 462.488Z"/><path fill="#D9D2C4" d="M518.126 601.349C540.589 602.557 571.375 610.621 574.309 638.6C574.526 640.672 573.783 647.479 572.298 649.143L571.846 647.86C565.812 620.759 536.707 610.239 511.986 608.229C513.961 606.201 516.217 603.516 518.126 601.349Z"/><path fill="#D9D2C4" d="M531.805 557.63C533.26 558.284 535.219 558.382 534.778 560.139C531.681 572.496 534.399 583.838 536.932 595.86C534.189 595.624 531.541 595.561 528.878 595.334C526.339 595.071 523.933 594.936 521.378 594.652C525.8 581.476 528.594 571.149 531.805 557.63Z"/><path fill="white" d="M559.66 664.751C560.45 664.482 561.488 664.251 562.314 664.061L562.748 664.544L562.965 664.069L563.157 664.231C563.099 664.845 560.099 666.287 559.492 666.599L559.66 664.751Z"/></svg>